<svg width="85" height="28" fill="none" xmlns="http://www.w3.org/2000/svg"><path d="m29.01 20.284-4.407-5.607v5.607h-1.868V7.753h1.868v5.716l4.424-5.716h2.343l-4.948 6.275 5.03 6.256H29.01Zm8.01.162c-.852 0-1.622-.21-2.31-.63-.689-.433-1.23-1.034-1.623-1.804-.393-.781-.59-1.683-.59-2.704 0-1.01.203-1.905.607-2.687.404-.781.956-1.382 1.655-1.803.699-.42 1.48-.63 2.343-.63s1.644.21 2.343.63c.7.42 1.25 1.022 1.655 1.803.404.781.606 1.677.606 2.687 0 1.01-.207 1.905-.622 2.686a4.578 4.578 0 0 1-1.705 1.821c-.71.421-1.496.631-2.359.631Zm0-1.785c.48 0 .928-.126 1.344-.378.426-.253.77-.631 1.032-1.136.262-.505.393-1.118.393-1.84 0-.72-.126-1.328-.377-1.82-.25-.505-.584-.884-1-1.136a2.54 2.54 0 0 0-1.343-.379c-.48 0-.928.126-1.344.379-.404.252-.726.63-.966 1.136-.24.492-.36 1.1-.36 1.82 0 1.07.245 1.9.737 2.489.502.577 1.13.865 1.884.865Zm8.4-6.87a3.045 3.045 0 0 1 1.082-1.171c.459-.289 1-.433 1.622-.433v2.128h-.475c-.732 0-1.289.204-1.671.613-.372.408-.557 1.118-.557 2.127v5.23h-1.868v-9.936h1.868v1.443Zm12.598-1.442v9.935H56.15v-1.172a3.136 3.136 0 0 1-1.163.974c-.47.228-.973.342-1.508.342-.71 0-1.35-.162-1.917-.486-.557-.325-1-.806-1.327-1.443-.317-.637-.475-1.406-.475-2.308V10.35h1.851v5.536c0 .89.202 1.574.606 2.055.404.469.956.703 1.655.703.7 0 1.251-.234 1.655-.703.415-.48.623-1.166.623-2.055v-5.536h1.868Zm9.166-2.596V9.43H62.35v3.696h3.77v1.677h-3.77v5.481h-1.867V7.753h6.701Zm3.6-.811v13.342h-1.869V6.942h1.868Zm3.402 2.091c-.339 0-.623-.126-.852-.378a1.342 1.342 0 0 1-.344-.938c0-.373.115-.685.344-.938.23-.252.513-.378.852-.378.328 0 .606.126.836.378.23.253.344.565.344.938s-.115.685-.344.938c-.23.252-.508.378-.836.378Zm.918 1.316v9.935h-1.868V10.35h1.868Zm6.32 4.905 2.916 5.03h-2.114l-1.95-3.372-1.835 3.372h-1.95l2.917-4.886-2.917-5.049h2.114l1.95 3.372 1.835-3.372h1.95l-2.917 4.905ZM6.88 5.145c-.828.092-1.798.401-2.576.82-1.552.839-2.758 2.166-3.523 3.878-1.856 4.159-.278 9.184 3.523 11.237.813.44 1.77.736 2.657.824.211.021 2.064.035 4.666.035 4.691 0 4.426.01 4.605-.197.246-.289.18-.736-.134-.92l-.138-.08h-4.385l.286-.208a8.475 8.475 0 0 0 2.22-2.468c.378-.641.746-1.546.944-2.321a9.177 9.177 0 0 0-.511-5.913 8.404 8.404 0 0 0-2-2.796C10.99 5.634 8.88 4.926 6.88 5.145Zm1.36 1.194c3.87.401 6.58 4.38 5.841 8.575-.393 2.222-1.782 4.176-3.658 5.141-3.235 1.662-7.101.155-8.666-3.38a7.875 7.875 0 0 1-.525-4.603C1.907 8.487 4.948 6 8.241 6.339Z" fill="#DBF229"/><path d="M7.175 7.41A2.117 2.117 0 0 0 5.78 8.84c-.083.256-.096.348-.096.668-.003.63.166 1.085.573 1.536.4.443.841.647 1.392.647.15 0 .361-.024.464-.052 1.02-.285 1.677-1.409 1.475-2.522a2.093 2.093 0 0 0-.547-1.109c-.288-.317-.58-.507-.915-.595a2.467 2.467 0 0 0-.95-.004Zm.848 1.232c.58.327.682 1.162.199 1.616-.57.54-1.447.095-1.447-.732 0-.402.234-.778.563-.912.17-.07.544-.057.685.028ZM3.632 11.389c-.45.116-.758.31-1.069.672a2.252 2.252 0 0 0-.515 1.462c0 .553.183 1.067.515 1.461.25.292.487.465.83.595.24.092.313.106.623.106s.384-.014.624-.106c.343-.13.58-.303.83-.595.332-.394.515-.908.515-1.461 0-1.166-.826-2.11-1.889-2.17a1.857 1.857 0 0 0-.464.036Zm.784 1.271c.512.285.637 1.028.256 1.507a.833.833 0 0 1-1.312 0c-.441-.553-.195-1.408.464-1.599.154-.045.423-.003.592.092ZM10.897 11.392c-.442.106-.768.314-1.072.68a2.224 2.224 0 0 0-.512 1.45c0 .606.185 1.092.589 1.533.41.447.822.633 1.395.63.58-.004 1.03-.226 1.437-.7a2.47 2.47 0 0 0 .48-.997 3.204 3.204 0 0 0-.013-.99c-.121-.563-.563-1.166-1.04-1.42-.41-.218-.86-.284-1.264-.186Zm.78 1.268c.16.088.318.257.41.45.08.16.08.666 0 .825-.31.63-1.05.75-1.462.232-.637-.796.192-1.99 1.053-1.507ZM7.169 15.41c-.448.13-.916.497-1.172.92-.067.109-.163.338-.217.503-.083.264-.096.345-.096.687 0 .341.013.422.096.686.182.57.537 1.015 1.014 1.265.314.165.512.215.855.215.342 0 .54-.05.864-.219.361-.19.73-.588.902-.979.125-.278.218-.697.218-.968a2.91 2.91 0 0 0-.051-.433c-.148-.803-.733-1.476-1.47-1.68-.236-.067-.71-.064-.943.003Zm.774 1.198c.487.18.73.838.5 1.338-.154.32-.4.507-.717.535-.525.046-.951-.387-.951-.961 0-.67.589-1.13 1.168-.912Z" fill="#DBF229"/></svg>